<svg id="Поточна зміна" width="21" height="20"  xmlns="http://www.w3.org/2000/svg"><path d="M2.083 19.896a2.006 2.006 0 0 1-1.471-.612A2.006 2.006 0 0 1 0 17.813V6.354c0-.573.204-1.063.612-1.471a2.006 2.006 0 0 1 1.471-.612H6.25V2.188c0-.573.204-1.064.612-1.472A2.006 2.006 0 0 1 8.333.104H12.5c.573 0 1.063.204 1.471.612.408.408.612.899.612 1.472V4.27h4.167c.573 0 1.063.204 1.471.612.408.408.612.898.612 1.471v11.459c0 .572-.204 1.063-.612 1.47a2.006 2.006 0 0 1-1.471.613H2.083ZM8.333 4.27H12.5V2.188H8.333V4.27Z" /></svg>