<svg id="Дешборд" width="19" height="19"  xmlns="http://www.w3.org/2000/svg"><path d="M11.583 6.375c-.295 0-.542-.1-.742-.3-.2-.2-.3-.447-.3-.742V1.167c0-.295.1-.543.3-.743.2-.2.447-.299.742-.299h6.25c.296 0 .543.1.743.3.2.2.299.447.299.742v4.166c0 .295-.1.543-.3.743-.2.2-.447.299-.742.299h-6.25ZM1.167 10.542c-.295 0-.543-.1-.743-.3-.2-.2-.299-.447-.299-.742V1.167c0-.295.1-.543.3-.743.2-.2.447-.299.742-.299h6.25c.295 0 .542.1.742.3.2.2.3.447.3.742V9.5c0 .295-.1.543-.3.742-.2.2-.447.3-.742.3h-6.25Zm10.416 8.333c-.295 0-.542-.1-.742-.3-.2-.2-.3-.447-.3-.742V9.5c0-.295.1-.543.3-.742.2-.2.447-.3.742-.3h6.25c.296 0 .543.1.743.3.2.2.299.447.299.742v8.333c0 .296-.1.543-.3.743-.2.2-.447.299-.742.299h-6.25Zm-10.416 0c-.295 0-.543-.1-.743-.3-.2-.2-.299-.447-.299-.742v-4.166c0-.296.1-.543.3-.742.2-.2.447-.3.742-.3h6.25c.295 0 .542.1.742.3.2.2.3.446.3.742v4.166c0 .296-.1.543-.3.743-.2.2-.447.299-.742.299h-6.25Z" /></svg>