<svg id="logo" width="65" height="65" viewBox="0 0 65 65" fill="none" xmlns="http://www.w3.org/2000/svg">
<path d="M45.332 51.6296C40.7332 54.7144 35.1771 56.0393 29.6812 55.3616C24.1853 54.6839 19.1174 52.0491 15.4058 47.9396C11.6941 43.8302 9.58703 38.5211 9.47048 32.9848C9.35393 27.4485 11.2357 22.0555 14.7711 17.7935C18.3066 13.5314 23.2591 10.6857 28.7216 9.7773C34.1841 8.86894 39.791 9.95882 44.5155 12.8473C49.24 15.7358 52.7658 20.2296 54.4473 25.5057C56.1287 30.7818 55.8532 36.487 53.6712 41.5765L48.3784 39.3074C50.0149 35.4903 50.2215 31.2113 48.9605 27.2543C47.6994 23.2972 45.055 19.9269 41.5117 17.7605C37.9683 15.5941 33.7631 14.7767 29.6662 15.458C25.5693 16.1392 21.855 18.2736 19.2034 21.4701C16.5518 24.6666 15.1405 28.7114 15.2279 32.8636C15.3153 37.0159 16.8956 40.9976 19.6794 44.0797C22.4631 47.1618 26.264 49.138 30.3859 49.6462C34.5079 50.1544 38.675 49.1608 42.124 46.8472L45.332 51.6296Z" fill="#0EB1B1"/>
<path d="M18.6792 32.4999C18.6792 29.3024 19.7879 26.2038 21.8164 23.7321C23.8449 21.2604 26.6676 19.5685 29.8037 18.9447C32.9398 18.3209 36.1952 18.8038 39.0151 20.3111C41.8351 21.8184 44.0452 24.2568 45.2688 27.2109C46.4925 30.1651 46.6539 33.4521 45.7257 36.5119C44.7976 39.5718 42.8371 42.2151 40.1785 43.9915C37.5198 45.768 34.3275 46.5676 31.1453 46.2542C27.9632 45.9408 24.9882 44.5337 22.7272 42.2727L26.1477 38.8523C27.6173 40.3219 29.5511 41.2365 31.6195 41.4402C33.6879 41.6439 35.7629 41.1242 37.491 39.9695C39.2191 38.8148 40.4934 37.0966 41.0967 35.1077C41.7001 33.1188 41.5951 30.9823 40.7997 29.0621C40.0044 27.1419 38.5678 25.5569 36.7348 24.5772C34.9019 23.5974 32.7859 23.2835 30.7474 23.689C28.709 24.0945 26.8742 25.1942 25.5557 26.8008C24.2371 28.4075 23.5165 30.4215 23.5165 32.4999H18.6792Z" fill="#85D300"/>
<path d="M32.8215 26.3848C34.1915 26.3517 35.5305 26.7947 36.6105 27.6382C37.6905 28.4817 38.4446 29.6736 38.7443 31.0108C39.044 32.348 38.8708 33.7477 38.2541 34.9715C37.6375 36.1953 36.6156 37.1675 35.3626 37.7223C34.1096 38.2771 32.7029 38.3803 31.3824 38.0143C30.0618 37.6482 28.909 36.8356 28.1204 35.7149C27.3317 34.5942 26.9561 33.2347 27.0575 31.8681C27.1588 30.5015 27.7309 29.2123 28.6762 28.2202L30.6059 30.0589C30.086 30.6046 29.7714 31.3137 29.7156 32.0653C29.6599 32.8169 29.8665 33.5646 30.3002 34.181C30.7339 34.7974 31.368 35.2443 32.0943 35.4457C32.8206 35.647 33.5943 35.5902 34.2834 35.2851C34.9726 34.9799 35.5346 34.4453 35.8738 33.7722C36.2129 33.0991 36.3082 32.3292 36.1434 31.5938C35.9785 30.8583 35.5638 30.2028 34.9698 29.7388C34.3758 29.2749 33.6393 29.0312 32.8858 29.0494L32.8215 26.3848Z" fill="#7BD5D5"/>
</svg>
