<svg id="Зміни" width="16" height="21" viewBox="0 0 16 21"  xmlns="http://www.w3.org/2000/svg">
<path d="M0.166687 19.875V15.7083C0.166687 15.4132 0.266513 15.1658 0.466166 14.9661C0.665819 14.7665 0.913215 14.6666 1.20835 14.6666H2.25002C2.54516 14.6666 2.79256 14.7665 2.99221 14.9661C3.19186 15.1658 3.29169 15.4132 3.29169 15.7083V19.875C3.29169 20.1701 3.19186 20.4175 2.99221 20.6172C2.79256 20.8168 2.54516 20.9166 2.25002 20.9166H1.20835C0.913215 20.9166 0.665819 20.8168 0.466166 20.6172C0.266513 20.4175 0.166687 20.1701 0.166687 19.875ZM5.37502 19.875V8.52081C4.64585 8.76387 4.13804 9.18921 3.85158 9.79685C3.56512 10.4045 3.38717 11.0642 3.31773 11.776C3.28301 12.0191 3.16148 12.2144 2.95315 12.362C2.74481 12.5095 2.51044 12.5833 2.25002 12.5833C1.97224 12.5833 1.72919 12.4965 1.52085 12.3229C1.31252 12.1493 1.22571 11.9323 1.26044 11.6719C1.45141 9.71005 2.18058 8.15623 3.44794 7.0104C4.7153 5.86456 6.39933 5.29165 8.50002 5.29165C10.0625 5.29165 11.2735 4.94008 12.1328 4.23696C12.9922 3.53383 13.5 2.47915 13.6563 1.0729C13.691 0.777757 13.8082 0.539042 14.0078 0.35675C14.2075 0.174459 14.4549 0.083313 14.75 0.083313C15.0452 0.083313 15.2926 0.178799 15.4922 0.369771C15.6919 0.560744 15.7743 0.795118 15.7396 1.0729C15.6007 2.37498 15.2057 3.53383 14.5547 4.54946C13.9037 5.56508 12.9271 6.29859 11.625 6.74998V19.875C11.625 20.1701 11.5252 20.4175 11.3255 20.6172C11.1259 20.8168 10.8785 20.9166 10.5834 20.9166C10.2882 20.9166 10.0408 20.8168 9.84117 20.6172C9.64151 20.4175 9.54169 20.1701 9.54169 19.875V14.6666H7.45835V19.875C7.45835 20.1701 7.35853 20.4175 7.15887 20.6172C6.95922 20.8168 6.71183 20.9166 6.41669 20.9166C6.12155 20.9166 5.87415 20.8168 5.6745 20.6172C5.47485 20.4175 5.37502 20.1701 5.37502 19.875ZM8.50002 4.24998C7.9271 4.24998 7.43665 4.04599 7.02867 3.638C6.62068 3.23001 6.41669 2.73956 6.41669 2.16665C6.41669 1.59373 6.62068 1.10328 7.02867 0.695292C7.43665 0.287306 7.9271 0.083313 8.50002 0.083313C9.07294 0.083313 9.56339 0.287306 9.97137 0.695292C10.3794 1.10328 10.5834 1.59373 10.5834 2.16665C10.5834 2.73956 10.3794 3.23001 9.97137 3.638C9.56339 4.04599 9.07294 4.24998 8.50002 4.24998Z" />
</svg>
