<svg id="Візити" width="17" height="21"  xmlns="http://www.w3.org/2000/svg"><path d="M5.375 19.875V7.141c-1.441-.382-2.617-1.146-3.529-2.292A7.6 7.6 0 0 1 .22.943C.184.7.27.496.479.33a1.14 1.14 0 0 1 .73-.248c.277 0 .52.074.728.222.209.147.33.351.365.612.191 1.25.73 2.291 1.615 3.125.885.833 1.979 1.25 3.28 1.25h2.605c.52 0 1.007.095 1.458.286.452.191.86.469 1.224.833l3.985 3.985a.988.988 0 0 1 .286.729.987.987 0 0 1-.286.73.987.987 0 0 1-.73.286.988.988 0 0 1-.729-.287L11.625 8.47v11.406c0 .295-.1.543-.3.742-.2.2-.446.3-.742.3-.295 0-.542-.1-.742-.3-.2-.2-.3-.447-.3-.742v-5.208H7.459v5.208c0 .295-.1.543-.3.742-.199.2-.446.3-.741.3s-.543-.1-.743-.3c-.2-.2-.299-.447-.299-.742ZM8.5 4.25a2.006 2.006 0 0 1-1.471-.612 2.006 2.006 0 0 1-.612-1.471c0-.573.204-1.064.612-1.472A2.006 2.006 0 0 1 8.5.083c.573 0 1.063.204 1.471.612.408.408.612.899.612 1.472s-.204 1.063-.612 1.471A2.006 2.006 0 0 1 8.5 4.25Z" /></svg>